<?xml version="1.0" encoding="utf-8"?>
<!-- Generator: Adobe Illustrator 23.0.0, SVG Export Plug-In . SVG Version: 6.00 Build 0)  -->
<svg version="1.1" id="图层_1" xmlns="http://www.w3.org/2000/svg" xmlns:xlink="http://www.w3.org/1999/xlink" x="0px" y="0px"
	 width="425.1px" height="63.4px" viewBox="0 0 425.1 63.4" style="enable-background:new 0 0 425.1 63.4;" xml:space="preserve">
<style type="text/css">
	.st0{fill-rule:evenodd;clip-rule:evenodd;fill:#005BAC;}
	.st1{fill:#005BAC;}
	.st2{fill-rule:evenodd;clip-rule:evenodd;fill:#F08300;}
</style>
<g>
	<path class="st0" d="M420.8,12.3c0,1.4-0.5,2.6-1.5,3.6c-1,1-2.2,1.5-3.6,1.5c-1.4,0-2.6-0.5-3.6-1.5c-1-1-1.5-2.2-1.5-3.6
		c0-1.4,0.5-2.6,1.5-3.6c1-1,2.2-1.5,3.6-1.5c1.4,0,2.6,0.5,3.6,1.5C420.3,9.7,420.8,10.9,420.8,12.3 M420.2,12.3
		c0-1.2-0.4-2.3-1.3-3.2c-0.9-0.9-2-1.3-3.2-1.3c-1.3,0-2.3,0.4-3.2,1.3c-0.9,0.9-1.3,2-1.3,3.2c0,1.2,0.4,2.3,1.3,3.2
		c0.9,0.9,2,1.3,3.2,1.3c1.3,0,2.3-0.4,3.2-1.3C419.8,14.6,420.2,13.5,420.2,12.3 M413.8,9.3h2.1c0.8,0,1.3,0.1,1.7,0.4
		c0.3,0.3,0.5,0.6,0.5,1.1c0,0.4-0.2,0.8-0.5,1.1c-0.3,0.2-0.6,0.4-1.1,0.4c0.2,0.1,0.4,0.2,0.5,0.3c0.1,0.1,0.2,0.3,0.4,0.5
		c0.2,0.3,0.3,0.5,0.4,0.7l0.6,1h-0.9l-0.5-0.9c-0.4-0.7-0.7-1.1-0.9-1.3c-0.2-0.1-0.6-0.2-1-0.2h-0.5v2.4h-0.7L413.8,9.3
		 M414.5,9.9v1.9h0.7c0.8,0,1.3,0,1.5-0.1c0.2-0.1,0.3-0.2,0.4-0.3c0.1-0.2,0.2-0.3,0.2-0.5c0-0.3-0.1-0.5-0.3-0.7
		c-0.2-0.2-0.7-0.3-1.5-0.3L414.5,9.9"/>
	<path class="st1" d="M334.7,44.7c0,2.5-0.7,4.8-2.1,6.9c-1.4,2.1-3.1,3.8-5.1,5c-2,1.2-3.8,1.8-5.3,1.8h-34.6
		c-2.8,0-5.4-0.7-7.6-2.2s-3.9-3.3-5.1-5.6c-1.2-2.2-1.8-4.3-1.8-6.4V21.1c0-1.8,0.4-3.6,1.2-5.3s1.9-3.2,3.2-4.5s2.8-2.3,4.3-3.1
		c1.6-0.8,3.1-1.1,4.5-1.1h34.1c1.5,0,3.4,0.5,5.7,1.5s4.2,2.6,6,4.9c1.7,2.3,2.6,5.2,2.6,8.7L334.7,44.7L334.7,44.7z M324.3,42
		V24.5c0-1.9-0.7-3.6-2-5s-3.4-2-6.3-2h-24.9c-0.8,0-1.7,0.3-2.9,0.9c-1.1,0.6-2.1,1.4-3,2.3c-0.8,1-1.3,2-1.3,3.1v17
		c0,2.1,0.6,3.9,1.7,5.3c1.1,1.4,2.7,2.2,4.9,2.2h27.9c1.8,0,2.6-0.5,3.9-1.5C323.7,45.9,324.3,44.3,324.3,42z"/>
	<path class="st1" d="M406.2,47.4c0,0.6,0,1.4-1.3,3.7c-1.1,1.9-2.3,3.7-4.4,5.2c-2,1.5-4.6,2.2-7.6,2.2c-3.2,0-5.5-0.4-7.1-1.3
		c-1.5-0.9-2.6-1.3-4.9-3.5L363,24.4c-0.6-1.3-2.2-3.8-3-4.8c-2.3-3.1-6.2-1.2-6.5,2.4c-0.1,0.6-0.2,1.3-0.2,1.9v34.2h-10.5V18.5
		c0-0.7,0.2-1.6,0.7-2.8c0.5-1.2,1.2-2.4,2.2-3.7c1-1.3,2.4-2.4,4.2-3.3c1.7-0.9,3.8-1.3,6.3-1.3c3.1,0,5,0.5,6.8,1.6
		c1.8,1,3.2,2.2,4.2,3.4l19.5,31.3c0.8,1,2.3,3.3,3.1,3.8c1.5,0.8,3.2,0.7,4.4-0.2c1.7-1.2,1.4-5.7,1.4-6.6V7.1h10.6L406.2,47.4
		L406.2,47.4z"/>
	<path class="st0" d="M50.7,35.3H17.3c-1.4,0-2.7,0.6-3.7,1.5c-0.9,0.9-1.5,2.2-1.5,3.6s0.6,2.7,1.5,3.6s2.2,1.5,3.7,1.5h33.3H51
		v0.3v12.3h10.4V24.6v-0.1v0l0,0c0-4.8-2-9.1-5.2-12.2C53,9.1,48.7,7.2,43.8,7.2h-8.7v0h-0.3c-9.7,0-18.5,3.1-24.9,8.6
		C4,21,0.2,28.5,0,37.5l0,0.3h0v0.1v0.3v0c0,0,0,0,0,0v0v0v0v0v0c0,0,0,0,0,0v0c0,0,0,0,0,0v0v0v0c0,0,0,0,0,0l0,0v0v19.9h10.4V38.6
		v-0.3v0v-0.3h0c0.1-6.3,2.6-11.2,6.7-14.7c4.5-3.8,10.8-5.8,17.7-5.8l9,0h0c2,0,3.7,0.8,5,2.1c1.3,1.3,2.1,3,2.1,4.9V35v0.3
		L50.7,35.3 M0,38.2L0,38.2L0,38.2 M0,38.2L0,38.2L0,38.2C0,38.2,0,38.2,0,38.2C0,38.2,0,38.2,0,38.2L0,38.2L0,38.2 M0,38.2
		C0,38.2,0,38.2,0,38.2L0,38.2L0,38.2L0,38.2L0,38.2L0,38.2C0,38.2,0,38.2,0,38.2L0,38.2C0,38.2,0,38.2,0,38.2L0,38.2L0,38.2
		C0,38.2,0,38.2,0,38.2L0,38.2C0,38.2,0,38.2,0,38.2L0,38.2L0,38.2L0,38.2L0,38.2L0,38.2C0,38.2,0,38.2,0,38.2L0,38.2L0,38.2
		 M0,38.2C0,38.2,0,38.2,0,38.2L0,38.2L0,38.2L0,38.2L0,38.2L0,38.2C0,38.2,0,38.2,0,38.2L0,38.2C0,38.2,0,38.2,0,38.2L0,38.2
		L0,38.2L0,38.2C0,38.2,0,38.2,0,38.2L0,38.2L0,38.2C0,38.2,0,38.2,0,38.2L0,38.2L0,38.2L0,38.2C0,38.2,0,38.2,0,38.2L0,38.2
		C0,38.2,0,38.2,0,38.2L0,38.2L0,38.2L0,38.2L0,38.2L0,38.2C0,38.2,0,38.2,0,38.2L0,38.2L0,38.2"/>
	<path class="st0" d="M261.4,47.9H213l-4.5,0v3.6v1.3c0,1.4,0.6,2.8,1.6,3.9c0.9,0.9,2.2,1.5,3.9,1.5h47.5c1.3,0,2.7-0.6,3.7-1.6
		c1-0.9,1.6-2.2,1.6-3.5v-0.7c0-1.3-0.6-2-1.6-2.9C264.2,48.5,262.8,47.9,261.4,47.9L261.4,47.9z"/>
	<path class="st0" d="M113.4,35.3L113.4,35.3H86.9c-1.4,0-2.7,0.6-3.7,1.5c-0.9,0.9-1.5,2.2-1.5,3.6s0.6,2.7,1.5,3.6
		c0.9,0.9,2.2,1.5,3.7,1.5h26.5h0c4.8,0,9.2-1.9,12.4-5.1c3.2-3.1,5.2-7.4,5.2-12.2v-0.2v-3.3v-0.3c0-4.8-2-9.1-5.1-12.2
		c-3.2-3.1-7.5-5.1-12.3-5.1h-0.3H80.2h-5.6c-0.7,0-1.3,0.1-1.9,0.4c-0.6,0.3-1.2,0.6-1.6,1.1c-0.5,0.5-0.9,1.1-1.2,1.7
		c-0.3,0.6-0.4,1.3-0.4,1.9v45.9h10.4V18.6v-0.8v-0.3h0.3h33.1h0c1.9,0,3.7,0.8,5,2.1c1.3,1.3,2.1,3,2.1,4.9h-0.2v0h0.2v3.8v0.3h0
		c-0.1,1.8-0.9,3.4-2.1,4.6C117.1,34.5,115.3,35.3,113.4,35.3L113.4,35.3L113.4,35.3z"/>
	<path class="st2" d="M208.5,23.3L208.5,23.3c0-8.4,7.5-16.2,16.7-16.2h36.3c1.3,0,2.6,0.6,3.5,1.4c1,0.9,1.6,2,1.6,3.1v1.2
		c0,1.1-0.6,2.3-1.6,3.1c-1,0.9-2.2,1.5-3.4,1.5l-36.9,0c-2.9,0.2-5.2,2.9-5.3,5.5c0,0,0,2.2,0,4.6v0.8h0.8h41.1
		c1.3,0,2.5,0.6,3.5,1.4c1.1,0.9,1.7,2.4,1.7,3.4V34c0,1.1-0.6,2.3-1.6,3.2c-0.9,0.8-2.1,1.4-3.3,1.4H213h-4.5v-4.1v0v-1.7
		L208.5,23.3L208.5,23.3z"/>
	<path class="st0" d="M182.9,35.3L182.9,35.3h-26.5c-1.4,0-2.7,0.6-3.7,1.5c-0.9,0.9-1.5,2.2-1.5,3.6s0.6,2.7,1.5,3.6
		c0.9,0.9,2.2,1.5,3.7,1.5h26.5h0c4.8,0,9.2-1.9,12.4-5.1c3.2-3.1,5.2-7.4,5.2-12.2v-0.2v-3.3v-0.3c0-4.8-2-9.1-5.1-12.2
		c-3.2-3.1-7.5-5.1-12.3-5.1h-0.3h-32.9h-5.6c-0.7,0-1.3,0.1-1.9,0.4c-0.6,0.3-1.2,0.6-1.6,1.1c-0.5,0.5-0.9,1.1-1.2,1.7
		c-0.3,0.6-0.4,1.3-0.4,1.9v45.9h10.4V18.6v-0.8v-0.3h0.3h33.1h0c1.9,0,3.7,0.8,5,2.1c1.3,1.3,2.1,3,2.1,4.9h-0.2v0h0.2v3.8v0.3h0
		c-0.1,1.8-0.9,3.4-2.1,4.6C186.6,34.5,184.8,35.3,182.9,35.3L182.9,35.3L182.9,35.3z"/>
</g>
</svg>
